<svg xmlns="http://www.w3.org/2000/svg" version="1.1" xmlns:xlink="http://www.w3.org/1999/xlink" xmlns:svgjs="http://svgjs.dev/svgjs" width="1500" height="246" viewBox="0 0 1500 246"><g transform="matrix(1,0,0,1,-0.9090909090909918,0.26357127337644215)"><svg viewBox="0 0 396 65" data-background-color="#ffffff" preserveAspectRatio="xMidYMid meet" height="246" width="1500" xmlns="http://www.w3.org/2000/svg" xmlns:xlink="http://www.w3.org/1999/xlink"><g id="tight-bounds" transform="matrix(1,0,0,1,0.2400000000000091,-0.06964281613605294)"><svg viewBox="0 0 395.52 65.13928563227209" height="65.13928563227209" width="395.52"><g><svg viewBox="0 0 521.9245883450515 85.95720782441934" height="65.13928563227209" width="395.52"><g transform="matrix(1,0,0,1,126.40458834505142,11.8797588237801)"><svg viewBox="0 0 395.52 62.19769017685914" height="62.19769017685914" width="395.52"><g id="textblocktransform"><svg viewBox="0 0 395.52 62.19769017685914" height="62.19769017685914" width="395.52" id="textblock"><g><svg viewBox="0 0 395.52 62.19769017685914" height="62.19769017685914" width="395.52"><g transform="matrix(1,0,0,1,0,0)"><svg width="395.52" viewBox="1.8 -35.9 234.63 36.9" height="62.19769017685914" data-palette-color="url(#3d72e3ba-aae3-4e41-8538-c3ac1881ca1d)"></svg></g></svg></g></svg></g></svg></g><g><svg viewBox="0 0 111.72120643885923 85.95720782441934" height="85.95720782441934" width="111.72120643885923"><g><svg xmlns="http://www.w3.org/2000/svg" data-name="Layer 1" viewBox="9 18.449998861164172 82 63.09000114011262" x="0" y="0" height="85.95720782441934" width="111.72120643885923" class="icon-icon-0" data-fill-palette-color="accent" id="icon-0"></svg></g></svg></g></svg></g><defs></defs><mask id="2108000c-3950-4796-9fb1-c87f4c36f918"><g id="SvgjsG1105"><svg viewBox="0 0 395.52 65.13928563227209" height="65.13928563227209" width="395.52"><g><svg viewBox="0 0 521.9245883450515 85.95720782441934" height="65.13928563227209" width="395.52"><g transform="matrix(1,0,0,1,126.40458834505142,11.8797588237801)"><svg viewBox="0 0 395.52 62.19769017685914" height="62.19769017685914" width="395.52"><g id="SvgjsG1104"><svg viewBox="0 0 395.52 62.19769017685914" height="62.19769017685914" width="395.52" id="SvgjsSvg1103"><g><svg viewBox="0 0 395.52 62.19769017685914" height="62.19769017685914" width="395.52"><g transform="matrix(1,0,0,1,0,0)"><svg width="395.52" viewBox="1.8 -35.9 234.63 36.9" height="62.19769017685914" data-palette-color="url(#3d72e3ba-aae3-4e41-8538-c3ac1881ca1d)"><path d="M32.1-9.8L32.1-9.8 33.3-8Q29.25-3.4 25.2-1.2 21.15 1 16.5 1L16.5 1Q10.75 1 6.28-4.05 1.8-9.1 1.8-15.5L1.8-15.5Q1.8-23.55 7.88-29.73 13.95-35.9 22-35.9L22-35.9Q25.2-35.9 30-34.3L30-34.3 29.4-27.3 27.7-27.3Q27.7-29.15 26.45-30.2 25.2-31.25 23.63-31.53 22.05-31.8 19.7-31.8L19.7-31.8Q13.9-31.8 9.6-28.4 5.3-25 5.3-19.1L5.3-19.1Q5.3-14.8 6.9-11.45 8.5-8.1 10.9-6.3L10.9-6.3Q15.65-2.8 20-2.8L20-2.8Q22.7-2.8 26-4.55 29.3-6.3 32.1-9.8ZM58.6-1.4L58.6 0 51.4 0 51.4-4Q48.9-1.3 47.25-0.3 45.6 0.7 42.77 0.7 39.95 0.7 38.37-0.63 36.8-1.95 36.8-4.35 36.8-6.75 38.87-9.03 40.95-11.3 43.72-12.48 46.5-13.65 48.6-14.28 50.7-14.9 51.4-14.9L51.4-14.9 51.4-16Q51.4-20.7 47.5-20.7L47.5-20.7Q44.8-20.7 42.47-19.55 40.15-18.4 39-16.6L39-16.6 38-17.5Q41.35-24 49.6-24L49.6-24Q51.7-24 53.07-22.88 54.45-21.75 54.92-20.25 55.4-18.75 55.4-16.9L55.4-16.9 55.4-3.4Q55.4-2.75 55.5-2.4 55.6-2.05 56.12-1.73 56.65-1.4 57.7-1.4L57.7-1.4 58.6-1.4ZM51.4-6.8L51.4-6.8 51.4-12.9Q47.5-12.15 44.15-9.9 40.8-7.65 40.8-5L40.8-5Q40.8-3.95 41.82-3.18 42.85-2.4 44.37-2.4 45.9-2.4 48-3.78 50.1-5.15 51.4-6.8ZM73.3-1.4L73.3 0 62.5 0 62.5-1.4 63.3-1.4Q64.65-1.4 65.02-1.85 65.4-2.3 65.4-3.3L65.4-3.3 65.4-18.3Q65.4-19.25 64.77-19.68 64.15-20.1 62.5-20.1L62.5-20.1 62.5-21.5Q63.5-21.5 65.52-22.23 67.55-22.95 68.6-23.6L68.6-23.6 69.5-23.8 69.5-17.6Q71.3-21.55 73.6-22.83 75.9-24.1 80.4-24.1L80.4-24.1 80.1-18.3 78.6-18.3Q78.6-19 78.07-19.65 77.55-20.3 76.4-20.3L76.4-20.3Q73.9-20.3 71.7-17.6 69.5-14.9 69.5-12.4L69.5-12.4 69.5-3.6Q69.5-2.8 69.57-2.45 69.65-2.1 70.15-1.75 70.65-1.4 71.7-1.4L71.7-1.4 73.3-1.4ZM103.79-13.7L103.79-11.3 83.89-11.3 83.89-13.7 103.79-13.7ZM118.74 0.7L118.74 0.7Q114.34 0.7 111.39-2.6 108.44-5.9 108.44-10.3L108.44-10.3Q108.44-15.9 112.67-19.95 116.89-24 121.59-24 126.29-24 129.17-20.68 132.04-17.35 132.04-13L132.04-13Q132.04-7.55 128.02-3.43 123.99 0.7 118.74 0.7ZM111.94-13Q111.94-8.35 114.77-5.28 117.59-2.2 121.12-2.2 124.64-2.2 126.64-4.85 128.64-7.5 128.64-10.3L128.64-10.3Q128.64-14.55 126.02-17.73 123.39-20.9 119.64-20.9 115.89-20.9 113.92-18.38 111.94-15.85 111.94-13L111.94-13ZM156.59-13.7L156.59-11.3 136.69-11.3 136.69-13.7 156.59-13.7ZM161.84-35L168.54-35 177.14-35.5Q183.94-35.5 185.79-32.2L185.79-32.2Q186.54-30.85 186.54-28.9L186.54-28.9Q186.54-23.1 181.74-19.7L181.74-19.7Q186.84-18.75 188.34-15.7L188.34-15.7Q189.04-14.2 189.04-12.1L189.04-12.1Q189.04-7.05 184.81-3.53 180.59 0 174.84 0L174.84 0 161.84 0 161.84-1.5 163.54-1.5Q165.04-1.5 165.44-2.05 165.84-2.6 165.84-3.7L165.84-3.7 165.84-31.3Q165.84-32.5 165.41-33 164.99-33.5 163.54-33.5L163.54-33.5 161.84-33.5 161.84-35ZM173.94-32.8L173.94-32.8Q171.94-32.8 170.24-32.5L170.24-32.5 170.24-19.4 176.34-19.4Q179.09-19.4 181.01-21.43 182.94-23.45 182.94-25.8L182.94-25.8Q182.94-29.2 180.24-31 177.54-32.8 173.94-32.8ZM174.84-17.3L174.84-17.3 170.24-17.3 170.24-3.1Q173.29-2.2 175.94-2.2L175.94-2.2Q179.94-2.2 182.44-4.17 184.94-6.15 184.94-9.5L184.94-9.5Q184.94-13.95 181.74-15.7L181.74-15.7Q178.89-17.3 174.84-17.3ZM214.63-1.4L214.63 0 207.43 0 207.43-4Q204.93-1.3 203.28-0.3 201.63 0.7 198.81 0.7 195.98 0.7 194.41-0.63 192.83-1.95 192.83-4.35 192.83-6.75 194.91-9.03 196.98-11.3 199.76-12.48 202.53-13.65 204.63-14.28 206.73-14.9 207.43-14.9L207.43-14.9 207.43-16Q207.43-20.7 203.53-20.7L203.53-20.7Q200.83-20.7 198.51-19.55 196.18-18.4 195.03-16.6L195.03-16.6 194.03-17.5Q197.38-24 205.63-24L205.63-24Q207.73-24 209.11-22.88 210.48-21.75 210.96-20.25 211.43-18.75 211.43-16.9L211.43-16.9 211.43-3.4Q211.43-2.75 211.53-2.4 211.63-2.05 212.16-1.73 212.68-1.4 213.73-1.4L213.73-1.4 214.63-1.4ZM207.43-6.8L207.43-6.8 207.43-12.9Q203.53-12.15 200.18-9.9 196.83-7.65 196.83-5L196.83-5Q196.83-3.95 197.86-3.18 198.88-2.4 200.41-2.4 201.93-2.4 204.03-3.78 206.13-5.15 207.43-6.8ZM229.33-1.4L229.33 0 218.53 0 218.53-1.4 219.33-1.4Q220.68-1.4 221.06-1.85 221.43-2.3 221.43-3.3L221.43-3.3 221.43-18.3Q221.43-19.25 220.81-19.68 220.18-20.1 218.53-20.1L218.53-20.1 218.53-21.5Q219.53-21.5 221.56-22.23 223.58-22.95 224.63-23.6L224.63-23.6 225.53-23.8 225.53-17.6Q227.33-21.55 229.63-22.83 231.93-24.1 236.43-24.1L236.43-24.1 236.13-18.3 234.63-18.3Q234.63-19 234.11-19.65 233.58-20.3 232.43-20.3L232.43-20.3Q229.93-20.3 227.73-17.6 225.53-14.9 225.53-12.4L225.53-12.4 225.53-3.6Q225.53-2.8 225.61-2.45 225.68-2.1 226.18-1.75 226.68-1.4 227.73-1.4L227.73-1.4 229.33-1.4Z" opacity="1" transform="matrix(1,0,0,1,0,0)" fill="white" class="wordmark-text-0" id="SvgjsPath1102"></path></svg></g></svg></g></svg></g></svg></g><g><svg viewBox="0 0 111.72120643885923 85.95720782441934" height="85.95720782441934" width="111.72120643885923"><g><svg xmlns="http://www.w3.org/2000/svg" data-name="Layer 1" viewBox="9 18.449998861164172 82 63.09000114011262" x="0" y="0" height="85.95720782441934" width="111.72120643885923" class="icon-icon-0" data-fill-palette-color="accent" id="SvgjsSvg1101"><path d="M86.19 73.38H13.81a1 1 0 0 1-1-1V39.23a1 1 0 0 1 2 0V71.38H85.19V39.23a1 1 0 0 1 2 0V72.38A1 1 0 0 1 86.19 73.38Z" fill="black"></path><path d="M66.87 59.64H33.13a1 1 0 0 1-1-1V53a1 1 0 0 1 1-1H66.87a1 1 0 0 1 1 1v5.68A1 1 0 0 1 66.87 59.64Zm-32.74-2H65.87V54H34.13Z" fill="black"></path><path d="M28 62.48H13.81a1 1 0 1 1 0-2H27V51.12H13.81a1 1 0 1 1 0-2H28a1 1 0 0 1 1 1V61.48A1 1 0 0 1 28 62.48Z" fill="black"></path><path d="M86.19 62.48H71.77a1 1 0 0 1-1-1V50.12a1 1 0 0 1 1-1H86.19a1 1 0 1 1 0 2H72.77v9.37H86.19a1 1 0 0 1 0 2Z" fill="black"></path><path d="M28.1 81.54H13.81a1 1 0 0 1-1-1V72.38a1 1 0 0 1 2 0v7.17H27.1V72.38a1 1 0 0 1 2 0v8.17A1 1 0 0 1 28.1 81.54Z" fill="black"></path><path d="M71.77 81.54a1 1 0 0 1-1-1V72.38a1 1 0 0 1 2 0v7.17l12.42 0V72.38a1 1 0 0 1 2 0v8.14a1 1 0 0 1-1 1l-14.42 0Z" fill="black"></path><path d="M86.19 40.23H13.81A1 1 0 0 1 13 38.68L26 18.9a1 1 0 0 1 0.83-0.45h46a1 1 0 0 1 0.83 0.44L87 38.67a1 1 0 0 1-0.83 1.56Zm-70.52-2H84.31l-12-17.77H27.41Z" fill="black"></path><path d="M90 36.56H83.71a1 1 0 0 1 0-2H89V29.69H79.08a1 1 0 0 1 0-2H90a1 1 0 0 1 1 1v6.87A1 1 0 0 1 90 36.56Z" fill="black"></path><path d="M16.23 36.56H10a1 1 0 0 1-1-1V28.69a1 1 0 0 1 1-1H20.77a1 1 0 0 1 0 2H11v4.87h5.23a1 1 0 0 1 0 2Z" fill="black"></path></svg></g></svg></g></svg></g><defs><mask></mask></defs></svg><rect width="395.52" height="65.13928563227209" fill="black" stroke="none" visibility="hidden"></rect></g></mask><linearGradient x1="0" x2="1" y1="0.578" y2="0.595" id="3d72e3ba-aae3-4e41-8538-c3ac1881ca1d"><stop stop-color="#6ee2f5" offset="0"></stop><stop stop-color="#6454f0" offset="1"></stop></linearGradient><rect width="395.52" height="65.13928563227209" fill="url(#3d72e3ba-aae3-4e41-8538-c3ac1881ca1d)" mask="url(#2108000c-3950-4796-9fb1-c87f4c36f918)" data-fill-palette-color="primary"></rect><mask id="0e3c4ef5-2683-4466-a22f-c67754d5341a"><g id="SvgjsG1124"><svg viewBox="0 0 395.52 65.13928563227209" height="65.13928563227209" width="395.52"><g><svg viewBox="0 0 521.9245883450515 85.95720782441934" height="65.13928563227209" width="395.52"><g transform="matrix(1,0,0,1,126.40458834505142,11.8797588237801)"><svg viewBox="0 0 395.52 62.19769017685914" height="62.19769017685914" width="395.52"><g id="SvgjsG1123"><svg viewBox="0 0 395.52 62.19769017685914" height="62.19769017685914" width="395.52" id="SvgjsSvg1122"><g><svg viewBox="0 0 395.52 62.19769017685914" height="62.19769017685914" width="395.52"><g transform="matrix(1,0,0,1,0,0)"><svg width="395.52" viewBox="1.8 -35.9 234.63 36.9" height="62.19769017685914" data-palette-color="url(#3d72e3ba-aae3-4e41-8538-c3ac1881ca1d)"></svg></g></svg></g></svg></g></svg></g><g><svg viewBox="0 0 111.72120643885923 85.95720782441934" height="85.95720782441934" width="111.72120643885923"><g><svg xmlns="http://www.w3.org/2000/svg" data-name="Layer 1" viewBox="9 18.449998861164172 82 63.09000114011262" x="0" y="0" height="85.95720782441934" width="111.72120643885923" class="icon-icon-0" data-fill-palette-color="accent" id="SvgjsSvg1121"><path d="M86.19 73.38H13.81a1 1 0 0 1-1-1V39.23a1 1 0 0 1 2 0V71.38H85.19V39.23a1 1 0 0 1 2 0V72.38A1 1 0 0 1 86.19 73.38Z" fill="white"></path><path d="M66.87 59.64H33.13a1 1 0 0 1-1-1V53a1 1 0 0 1 1-1H66.87a1 1 0 0 1 1 1v5.68A1 1 0 0 1 66.87 59.64Zm-32.74-2H65.87V54H34.13Z" fill="white"></path><path d="M28 62.48H13.81a1 1 0 1 1 0-2H27V51.12H13.81a1 1 0 1 1 0-2H28a1 1 0 0 1 1 1V61.48A1 1 0 0 1 28 62.48Z" fill="white"></path><path d="M86.19 62.48H71.77a1 1 0 0 1-1-1V50.12a1 1 0 0 1 1-1H86.19a1 1 0 1 1 0 2H72.77v9.37H86.19a1 1 0 0 1 0 2Z" fill="white"></path><path d="M28.1 81.54H13.81a1 1 0 0 1-1-1V72.38a1 1 0 0 1 2 0v7.17H27.1V72.38a1 1 0 0 1 2 0v8.17A1 1 0 0 1 28.1 81.54Z" fill="white"></path><path d="M71.77 81.54a1 1 0 0 1-1-1V72.38a1 1 0 0 1 2 0v7.17l12.42 0V72.38a1 1 0 0 1 2 0v8.14a1 1 0 0 1-1 1l-14.42 0Z" fill="white"></path><path d="M86.19 40.23H13.81A1 1 0 0 1 13 38.68L26 18.9a1 1 0 0 1 0.83-0.45h46a1 1 0 0 1 0.83 0.44L87 38.67a1 1 0 0 1-0.83 1.56Zm-70.52-2H84.31l-12-17.77H27.41Z" fill="white"></path><path d="M90 36.56H83.71a1 1 0 0 1 0-2H89V29.69H79.08a1 1 0 0 1 0-2H90a1 1 0 0 1 1 1v6.87A1 1 0 0 1 90 36.56Z" fill="white"></path><path d="M16.23 36.56H10a1 1 0 0 1-1-1V28.69a1 1 0 0 1 1-1H20.77a1 1 0 0 1 0 2H11v4.87h5.23a1 1 0 0 1 0 2Z" fill="white"></path></svg></g></svg></g></svg></g><defs><mask></mask></defs><mask><g id="SvgjsG1120"><svg viewBox="0 0 395.52 65.13928563227209" height="65.13928563227209" width="395.52"><g><svg viewBox="0 0 521.9245883450515 85.95720782441934" height="65.13928563227209" width="395.52"><g transform="matrix(1,0,0,1,126.40458834505142,11.8797588237801)"><svg viewBox="0 0 395.52 62.19769017685914" height="62.19769017685914" width="395.52"><g id="SvgjsG1119"><svg viewBox="0 0 395.52 62.19769017685914" height="62.19769017685914" width="395.52" id="SvgjsSvg1118"><g><svg viewBox="0 0 395.52 62.19769017685914" height="62.19769017685914" width="395.52"><g transform="matrix(1,0,0,1,0,0)"><svg width="395.52" viewBox="1.8 -35.9 234.63 36.9" height="62.19769017685914" data-palette-color="url(#3d72e3ba-aae3-4e41-8538-c3ac1881ca1d)"><path d="M32.1-9.8L32.1-9.8 33.3-8Q29.25-3.4 25.2-1.2 21.15 1 16.5 1L16.5 1Q10.75 1 6.28-4.05 1.8-9.1 1.8-15.5L1.8-15.5Q1.8-23.55 7.88-29.73 13.95-35.9 22-35.9L22-35.9Q25.2-35.9 30-34.3L30-34.3 29.4-27.3 27.7-27.3Q27.7-29.15 26.45-30.2 25.2-31.25 23.63-31.53 22.05-31.8 19.7-31.8L19.7-31.8Q13.9-31.8 9.6-28.4 5.3-25 5.3-19.1L5.3-19.1Q5.3-14.8 6.9-11.45 8.5-8.1 10.9-6.3L10.9-6.3Q15.65-2.8 20-2.8L20-2.8Q22.7-2.8 26-4.55 29.3-6.3 32.1-9.8ZM58.6-1.4L58.6 0 51.4 0 51.4-4Q48.9-1.3 47.25-0.3 45.6 0.7 42.77 0.7 39.95 0.7 38.37-0.63 36.8-1.95 36.8-4.35 36.8-6.75 38.87-9.03 40.95-11.3 43.72-12.48 46.5-13.65 48.6-14.28 50.7-14.9 51.4-14.9L51.4-14.9 51.4-16Q51.4-20.7 47.5-20.7L47.5-20.7Q44.8-20.7 42.47-19.55 40.15-18.4 39-16.6L39-16.6 38-17.5Q41.35-24 49.6-24L49.6-24Q51.7-24 53.07-22.88 54.45-21.75 54.92-20.25 55.4-18.75 55.4-16.9L55.4-16.9 55.4-3.4Q55.4-2.75 55.5-2.4 55.6-2.05 56.12-1.73 56.65-1.4 57.7-1.4L57.7-1.4 58.6-1.4ZM51.4-6.8L51.4-6.8 51.4-12.9Q47.5-12.15 44.15-9.9 40.8-7.65 40.8-5L40.8-5Q40.8-3.95 41.82-3.18 42.85-2.4 44.37-2.4 45.9-2.4 48-3.78 50.1-5.15 51.4-6.8ZM73.3-1.4L73.3 0 62.5 0 62.5-1.4 63.3-1.4Q64.65-1.4 65.02-1.85 65.4-2.3 65.4-3.3L65.4-3.3 65.4-18.3Q65.4-19.25 64.77-19.68 64.15-20.1 62.5-20.1L62.5-20.1 62.5-21.5Q63.5-21.5 65.52-22.23 67.55-22.95 68.6-23.6L68.6-23.6 69.5-23.8 69.5-17.6Q71.3-21.55 73.6-22.83 75.9-24.1 80.4-24.1L80.4-24.1 80.1-18.3 78.6-18.3Q78.6-19 78.07-19.65 77.55-20.3 76.4-20.3L76.4-20.3Q73.9-20.3 71.7-17.6 69.5-14.9 69.5-12.4L69.5-12.4 69.5-3.6Q69.5-2.8 69.57-2.45 69.65-2.1 70.15-1.75 70.65-1.4 71.7-1.4L71.7-1.4 73.3-1.4ZM103.79-13.7L103.79-11.3 83.89-11.3 83.89-13.7 103.79-13.7ZM118.74 0.7L118.74 0.7Q114.34 0.7 111.39-2.6 108.44-5.9 108.44-10.3L108.44-10.3Q108.44-15.9 112.67-19.95 116.89-24 121.59-24 126.29-24 129.17-20.68 132.04-17.35 132.04-13L132.04-13Q132.04-7.55 128.02-3.43 123.99 0.7 118.74 0.7ZM111.94-13Q111.94-8.35 114.77-5.28 117.59-2.2 121.12-2.2 124.64-2.2 126.64-4.85 128.64-7.5 128.64-10.3L128.64-10.3Q128.64-14.55 126.02-17.73 123.39-20.9 119.64-20.9 115.89-20.9 113.92-18.38 111.94-15.85 111.94-13L111.94-13ZM156.59-13.7L156.59-11.3 136.69-11.3 136.69-13.7 156.59-13.7ZM161.84-35L168.54-35 177.14-35.5Q183.94-35.5 185.79-32.2L185.79-32.2Q186.54-30.85 186.54-28.9L186.54-28.9Q186.54-23.1 181.74-19.7L181.74-19.7Q186.84-18.75 188.34-15.7L188.34-15.7Q189.04-14.2 189.04-12.1L189.04-12.1Q189.04-7.05 184.81-3.53 180.59 0 174.84 0L174.84 0 161.84 0 161.84-1.5 163.54-1.5Q165.04-1.5 165.44-2.05 165.84-2.6 165.84-3.7L165.84-3.7 165.84-31.3Q165.84-32.5 165.41-33 164.99-33.5 163.54-33.5L163.54-33.5 161.84-33.5 161.84-35ZM173.94-32.8L173.94-32.8Q171.94-32.8 170.24-32.5L170.24-32.5 170.24-19.4 176.34-19.4Q179.09-19.4 181.01-21.43 182.94-23.45 182.94-25.8L182.94-25.8Q182.94-29.2 180.24-31 177.54-32.8 173.94-32.8ZM174.84-17.3L174.84-17.3 170.24-17.3 170.24-3.1Q173.29-2.2 175.94-2.2L175.94-2.2Q179.94-2.2 182.44-4.17 184.94-6.15 184.94-9.5L184.94-9.5Q184.94-13.95 181.74-15.7L181.74-15.7Q178.89-17.3 174.84-17.3ZM214.63-1.4L214.63 0 207.43 0 207.43-4Q204.93-1.3 203.28-0.3 201.63 0.7 198.81 0.7 195.98 0.7 194.41-0.63 192.83-1.95 192.83-4.35 192.83-6.75 194.91-9.03 196.98-11.3 199.76-12.48 202.53-13.65 204.63-14.28 206.73-14.9 207.43-14.9L207.43-14.9 207.43-16Q207.43-20.7 203.53-20.7L203.53-20.7Q200.83-20.7 198.51-19.55 196.18-18.4 195.03-16.6L195.03-16.6 194.03-17.5Q197.38-24 205.63-24L205.63-24Q207.73-24 209.11-22.88 210.48-21.75 210.96-20.25 211.43-18.75 211.43-16.9L211.43-16.9 211.43-3.4Q211.43-2.75 211.53-2.4 211.63-2.05 212.16-1.73 212.68-1.4 213.73-1.4L213.73-1.4 214.63-1.4ZM207.43-6.8L207.43-6.8 207.43-12.9Q203.53-12.15 200.18-9.9 196.83-7.65 196.83-5L196.83-5Q196.83-3.95 197.86-3.18 198.88-2.4 200.41-2.4 201.93-2.4 204.03-3.78 206.13-5.15 207.43-6.8ZM229.33-1.4L229.33 0 218.53 0 218.53-1.4 219.33-1.4Q220.68-1.4 221.06-1.85 221.43-2.3 221.43-3.3L221.43-3.3 221.43-18.3Q221.43-19.25 220.81-19.68 220.18-20.1 218.53-20.1L218.53-20.1 218.53-21.5Q219.53-21.5 221.56-22.23 223.58-22.95 224.63-23.6L224.63-23.6 225.53-23.8 225.53-17.6Q227.33-21.55 229.63-22.83 231.93-24.1 236.43-24.1L236.43-24.1 236.13-18.3 234.63-18.3Q234.63-19 234.11-19.65 233.58-20.3 232.43-20.3L232.43-20.3Q229.93-20.3 227.73-17.6 225.53-14.9 225.53-12.4L225.53-12.4 225.53-3.6Q225.53-2.8 225.61-2.45 225.68-2.1 226.18-1.75 226.68-1.4 227.73-1.4L227.73-1.4 229.33-1.4Z" opacity="1" transform="matrix(1,0,0,1,0,0)" fill="black" class="wordmark-text-0" id="SvgjsPath1117"></path></svg></g></svg></g></svg></g></svg></g><g><svg viewBox="0 0 111.72120643885923 85.95720782441934" height="85.95720782441934" width="111.72120643885923"><g><svg xmlns="http://www.w3.org/2000/svg" data-name="Layer 1" viewBox="9 18.449998861164172 82 63.09000114011262" x="0" y="0" height="85.95720782441934" width="111.72120643885923" class="icon-icon-0" data-fill-palette-color="accent" id="SvgjsSvg1116"><path d="M86.19 73.38H13.81a1 1 0 0 1-1-1V39.23a1 1 0 0 1 2 0V71.38H85.19V39.23a1 1 0 0 1 2 0V72.38A1 1 0 0 1 86.19 73.38Z" fill="black"></path><path d="M66.87 59.64H33.13a1 1 0 0 1-1-1V53a1 1 0 0 1 1-1H66.87a1 1 0 0 1 1 1v5.68A1 1 0 0 1 66.87 59.64Zm-32.74-2H65.87V54H34.13Z" fill="black"></path><path d="M28 62.48H13.81a1 1 0 1 1 0-2H27V51.12H13.81a1 1 0 1 1 0-2H28a1 1 0 0 1 1 1V61.48A1 1 0 0 1 28 62.48Z" fill="black"></path><path d="M86.19 62.48H71.77a1 1 0 0 1-1-1V50.12a1 1 0 0 1 1-1H86.19a1 1 0 1 1 0 2H72.77v9.37H86.19a1 1 0 0 1 0 2Z" fill="black"></path><path d="M28.1 81.54H13.81a1 1 0 0 1-1-1V72.38a1 1 0 0 1 2 0v7.17H27.1V72.38a1 1 0 0 1 2 0v8.17A1 1 0 0 1 28.1 81.54Z" fill="black"></path><path d="M71.77 81.54a1 1 0 0 1-1-1V72.38a1 1 0 0 1 2 0v7.17l12.42 0V72.38a1 1 0 0 1 2 0v8.14a1 1 0 0 1-1 1l-14.42 0Z" fill="black"></path><path d="M86.19 40.23H13.81A1 1 0 0 1 13 38.68L26 18.9a1 1 0 0 1 0.83-0.45h46a1 1 0 0 1 0.83 0.44L87 38.67a1 1 0 0 1-0.83 1.56Zm-70.52-2H84.31l-12-17.77H27.41Z" fill="black"></path><path d="M90 36.56H83.71a1 1 0 0 1 0-2H89V29.69H79.08a1 1 0 0 1 0-2H90a1 1 0 0 1 1 1v6.87A1 1 0 0 1 90 36.56Z" fill="black"></path><path d="M16.23 36.56H10a1 1 0 0 1-1-1V28.69a1 1 0 0 1 1-1H20.77a1 1 0 0 1 0 2H11v4.87h5.23a1 1 0 0 1 0 2Z" fill="black"></path></svg></g></svg></g></svg></g><defs><mask></mask></defs></svg><rect width="395.52" height="65.13928563227209" fill="black" stroke="none" visibility="hidden"></rect></g></mask></svg><rect width="395.52" height="65.13928563227209" fill="black" stroke="none" visibility="hidden"></rect></g></mask><linearGradient x1="0" x2="1" y1="0.578" y2="0.595" id="0c7b3795-1c56-446e-a0a0-72e9749e3491"><stop stop-color="#6ee2f5" offset="0"></stop><stop stop-color="#6454f0" offset="1"></stop></linearGradient><rect width="395.52" height="65.13928563227209" fill="url(#0c7b3795-1c56-446e-a0a0-72e9749e3491)" mask="url(#0e3c4ef5-2683-4466-a22f-c67754d5341a)" data-fill-palette-color="accent"></rect></svg><rect width="395.52" height="65.13928563227209" fill="none" stroke="none" visibility="hidden"></rect></g></svg></g></svg>